<svg xmlns="http://www.w3.org/2000/svg" width="168" height="129" fill="none"><g filter="url(#a)"><rect width="94" height="94" x="8" y="4" fill="#fff" rx="4"/></g><mask id="b" width="94" height="94" x="8" y="4" maskUnits="userSpaceOnUse" style="mask-type:luminance"><rect width="94" height="94" x="8" y="4" fill="#fff" rx="4"/></mask><g fill="#478CF7" fill-opacity=".084" fill-rule="evenodd" clip-rule="evenodd" mask="url(#b)"><path d="M31.009 49.398c.7-35.138 43.38-61.057 76.947-31.557 42.047-36.951 97.482 13.228 69.432 57.276h-37.864l-15.565-29.044c-1.747-3.259-6.466-3.152-8.05.209L97.752 84.796 85.295 65.13c-1.811-2.862-5.96-2.77-7.674.1l-5.904 9.888H38.524c-5.121-8.042-7.694-16.764-7.515-25.72Zm88.627 8.37 12.602 23.501a4.503 4.503 0 0 0 3.969 2.38H169.6l-.138.147c-.542.577-1.109 1.13-58.925 58.887a4.495 4.495 0 0 1-6.358 0C46.126 84.69 45.679 84.256 45.257 83.8c-.035-.039-.07-.077-.14-.15h28.586c1.583 0 3.05-.835 3.865-2.198l3.46-5.79L93.94 96.037c1.901 3.001 6.36 2.722 7.876-.492l17.82-37.776Z"/><path d="M13.01 43.938C13.875.458 66.533-31.614 107.947 4.89c51.876-45.723 120.269 16.37 85.663 70.874h-46.716l-19.204-35.939c-2.155-4.032-7.977-3.9-9.931.258L95.356 87.741 79.988 63.404c-2.235-3.541-7.354-3.427-9.469.125l-7.284 12.234H22.283c-6.318-9.95-9.492-20.744-9.272-31.825Zm109.346 10.358 15.548 29.08a5.554 5.554 0 0 0 4.896 2.946H184l-.17.18c-.669.715-1.369 1.4-72.7 72.868a5.533 5.533 0 0 1-7.844 0C31.662 87.609 31.111 87.072 30.59 86.507c-.044-.047-.087-.095-.173-.185h35.268a5.553 5.553 0 0 0 4.769-2.72l4.268-7.164 15.931 25.213c2.346 3.713 7.847 3.367 9.718-.61l21.985-46.745Z"/></g><path fill="#478CF7" fill-rule="evenodd" d="M48.007 55.496c.545-27.301 33.803-47.44 59.959-24.52 32.763-28.709 75.96 10.28 54.103 44.503h-29.505l-12.129-22.566c-1.361-2.532-5.038-2.45-6.272.162L100.014 83l-9.706-15.281c-1.412-2.224-4.644-2.152-5.98.078l-4.6 7.682H53.863c-3.99-6.248-5.995-13.025-5.856-19.983ZM117.067 62l9.82 18.26a3.51 3.51 0 0 0 3.092 1.849H156a8.665 8.665 0 0 0-.107.114c-.423.448-.865.878-45.916 45.753a3.508 3.508 0 0 1-4.954 0C59.787 82.917 59.439 82.58 59.11 82.226l-.11-.117h22.275a3.511 3.511 0 0 0 3.011-1.707l2.696-4.5 10.062 15.832c1.481 2.332 4.956 2.115 6.137-.383L117.067 62Z" clip-rule="evenodd"/><path fill="#FAD149" fill-rule="evenodd" d="M53.378 72.414c5.855-5.885 15.378-5.885 21.232 0 5.853 5.889 5.853 15.469 0 21.356l-2.404 2.642a16.493 16.493 0 0 0-6.544-1.352c-4.049 0-7.716 1.517-10.608 3.94L41 84.865l12.378-12.45ZM38.733 87 53 101.146c-2.33 2.874-3.784 6.474-3.784 10.44 0 2.335.489 4.556 1.362 6.578l-2.49 2.48c-5.935 5.882-15.703 5.77-21.638-.112-5.933-5.885-5.933-15.459 0-21.342L38.733 87ZM52 112c0 6.708 5.244 12.182 12 13V99c-6.756.818-12 6.292-12 13Zm15 13V99c6.756.818 12 6.292 12 13s-5.244 12.182-12 13Z" clip-rule="evenodd"/><defs><filter id="a" width="110" height="110" x="0" y="0" color-interpolation-filters="sRGB" filterUnits="userSpaceOnUse"><feFlood flood-opacity="0" result="BackgroundImageFix"/><feColorMatrix in="SourceAlpha" result="hardAlpha" values="0 0 0 0 0 0 0 0 0 0 0 0 0 0 0 0 0 0 127 0"/><feOffset dy="4"/><feGaussianBlur stdDeviation="4"/><feColorMatrix values="0 0 0 0 0 0 0 0 0 0.0823529 0 0 0 0 0.25098 0 0 0 0.0840976 0"/><feBlend in2="BackgroundImageFix" result="effect1_dropShadow_0_91"/><feBlend in="SourceGraphic" in2="effect1_dropShadow_0_91" result="shape"/></filter></defs></svg>