<svg xmlns="http://www.w3.org/2000/svg" width="170" height="128" fill="none"><g filter="url(#a)"><rect width="110" height="110" x="8" y="6" fill="#fff" rx="4"/></g><mask id="b" width="110" height="110" x="8" y="6" maskUnits="userSpaceOnUse" style="mask-type:luminance"><rect width="110" height="110" x="8" y="6" fill="#fff" rx="4"/></mask><g fill="#478CF7" fill-opacity=".079" fill-rule="evenodd" clip-rule="evenodd" mask="url(#b)"><path d="M145.934 37.6h-30.019c-4.298 0-7.794-3.323-7.794-7.408V-9.592c0-4.085 3.496-7.408 7.794-7.408h30.019c4.297 0 7.793 3.323 7.793 7.408v39.784c0 4.085-3.496 7.408-7.793 7.408ZM117.09 65.567h63.648c2.354 0 4.262 1.887 4.262 4.216 0 2.328-1.908 4.216-4.262 4.216h-16.286c-5.974 13.678-17.225 24.377-31.07 29.806l3.05 13.762h12.482c2.354 0 4.262 1.888 4.262 4.217 0 2.328-1.908 4.216-4.262 4.216h-72.74c-2.354 0-4.262-1.888-4.262-4.216 0-2.329 1.908-4.217 4.262-4.217h12.483l3.052-13.774C70.81 95.57 56 75.361 56 51.793 56 25.3 74.717 3.048 99.758-2.7v27.83c-10.071 4.746-17.049 14.913-17.049 26.663 0 16.274 13.384 29.514 29.835 29.514 7.375 0 14.305-2.642 19.669-7.308H117.09c-2.354 0-4.262-1.888-4.262-4.216 0-2.329 1.908-4.216 4.262-4.216Zm-17.213 40.746-2.494 11.254h30.322l-2.493-11.249a57.436 57.436 0 0 1-25.335-.005ZM125.102 55.8h11.644c4.334 0 7.86-3.242 7.86-7.226V46.7h-27.364v1.873c0 3.985 3.526 7.227 7.86 7.227Z"/><path d="M154.123 33.018h-39.095c-5.596 0-10.149-4.322-10.149-9.636v-51.746c0-5.314 4.553-9.636 10.149-9.636h39.095c5.597 0 10.15 4.322 10.15 9.636v51.746c0 5.314-4.553 9.636-10.15 9.636Zm-37.564 36.376h82.89c3.066 0 5.551 2.456 5.551 5.484 0 3.029-2.485 5.484-5.551 5.484H178.24c-7.78 17.791-22.433 31.708-40.463 38.768l3.971 17.902h16.256c3.066 0 5.551 2.455 5.551 5.484S161.07 148 158.004 148h-94.73c-3.066 0-5.552-2.455-5.552-5.484s2.486-5.484 5.551-5.484H79.53l3.975-17.916C56.29 108.42 37 82.134 37 51.479 37 17.018 61.376-11.924 93.987-19.4v36.2C80.87 22.972 71.784 36.196 71.784 51.48c0 21.167 17.43 38.388 38.855 38.388 9.604 0 18.63-3.436 25.615-9.506h-19.695c-3.065 0-5.55-2.455-5.55-5.484 0-3.028 2.485-5.484 5.55-5.484Zm-22.417 53-3.247 14.638h39.488l-3.247-14.633a74.889 74.889 0 0 1-32.994-.005Zm32.852-65.703h15.164c5.644 0 10.236-4.217 10.236-9.4v-2.436h-35.636v2.436c0 5.183 4.591 9.4 10.236 9.4Z"/></g><path fill="#478CF7" fill-rule="evenodd" d="M140.019 42h-23.038c-3.298 0-5.981-2.556-5.981-5.699V5.698C111 2.556 113.683 0 116.981 0h23.038C143.317 0 146 2.556 146 5.698v30.603c0 3.143-2.683 5.699-5.981 5.699Zm-22.136 21.513h48.846c1.806 0 3.271 1.452 3.271 3.243s-1.465 3.243-3.271 3.243h-12.498c-4.585 10.522-13.22 18.752-23.845 22.928l2.341 10.586h9.579c1.807 0 3.271 1.453 3.271 3.244 0 1.791-1.464 3.243-3.271 3.243H86.482c-1.806 0-3.27-1.452-3.27-3.243s1.464-3.244 3.27-3.244h9.58l2.342-10.595C82.367 86.592 71 71.048 71 52.918 71 32.538 85.364 15.422 104.581 11v21.408c-7.728 3.65-13.083 11.471-13.083 20.51 0 12.518 10.271 22.703 22.896 22.703 5.66 0 10.979-2.032 15.095-5.622h-11.606c-1.806 0-3.271-1.452-3.271-3.243s1.465-3.243 3.271-3.243Zm-15.124 40h23.27l-1.913-8.653a43.977 43.977 0 0 1-19.443-.004l-1.914 8.657ZM124.032 56h8.936c3.326 0 6.032-2.494 6.032-5.559V49h-21v1.441c0 3.065 2.706 5.559 6.032 5.559Z" clip-rule="evenodd"/><rect width="14" height="14" x="67" y="110" fill="#AFCEFF" rx="2"/><rect width="23" height="23" x="40" y="87" fill="#FFE796" rx="4"/><rect width="32" height="32" x="1" y="72" fill="#FAD149" rx="4"/><defs><filter id="a" width="126" height="126" x="0" y="2" color-interpolation-filters="sRGB" filterUnits="userSpaceOnUse"><feFlood flood-opacity="0" result="BackgroundImageFix"/><feColorMatrix in="SourceAlpha" result="hardAlpha" values="0 0 0 0 0 0 0 0 0 0 0 0 0 0 0 0 0 0 127 0"/><feOffset dy="4"/><feGaussianBlur stdDeviation="4"/><feColorMatrix values="0 0 0 0 0 0 0 0 0 0.0823529 0 0 0 0 0.25098 0 0 0 0.0840976 0"/><feBlend in2="BackgroundImageFix" result="effect1_dropShadow_0_113"/><feBlend in="SourceGraphic" in2="effect1_dropShadow_0_113" result="shape"/></filter></defs></svg>