<svg xmlns="http://www.w3.org/2000/svg" width="184" height="136" fill="none"><g filter="url(#a)"><rect width="99" height="99" x="8" y="4" fill="#fff" rx="4"/></g><mask id="b" width="99" height="99" x="8" y="4" maskUnits="userSpaceOnUse" style="mask-type:luminance"><rect width="99" height="99" x="8" y="4" fill="#fff" rx="4"/></mask><g fill="#478CF7" fill-opacity=".08" fill-rule="evenodd" clip-rule="evenodd" mask="url(#b)"><path d="M134.374 4H98.253v19.5h36.121V4Zm9.406 27.672V13H172v150h-70.199c9.028-7.713 13.76-18.617 13.76-29.911v-20.141H89.258a39.611 39.611 0 0 0-25.433 9.217 39.782 39.782 0 0 0-4.704-3.38V13h28.22v18.672h56.439ZM82.638 83.021v9.336h9.406V83.02h-9.406Zm0-18.672v-9.337h9.406v9.337h-9.406Zm18.813 28.008h47.033V83.02h-47.033v9.336Zm47.033-28.008h-47.033v-9.337h47.033v9.337ZM107.283 122.5h-16.76c-16.486 0-29.897 13.347-29.897 29.753V163h17.072c16.474 0 29.585-13.265 29.585-29.752V122.5ZM23 133.259V122.5h16.295c6.94 0 13.318 2.506 18.321 6.68-4.648 6.476-7.399 14.466-7.399 23.104V163C34.751 162.17 23 149.019 23 133.259Z"/><path d="M153.434-40H99.131v29.311h54.303V-40Zm14.142 41.595v-28.067H210V199H104.466c13.572-11.594 20.686-27.985 20.686-44.961v-30.275H85.61c-13.797 0-27.356 4.762-38.236 13.854a59.765 59.765 0 0 0-7.071-5.079v-159.01h42.424V1.594h84.849ZM75.656 78.78v14.033h14.142V78.78H75.657Zm0-28.067V36.679h14.142v14.034H75.657Zm28.283 42.1h70.707V78.78h-70.707v14.033Zm70.707-42.1h-70.707V36.679h70.707v14.034Zm-61.939 87.41H87.51c-24.782 0-44.944 20.062-44.944 44.722V199H68.23c24.766 0 44.477-19.94 44.477-44.722v-16.155ZM-14 154.295v-16.172h24.498c10.432 0 20.021 3.767 27.542 10.041-6.988 9.734-11.123 21.745-11.123 34.728V199C3.666 197.753-14 177.985-14 154.295Z"/></g><path fill="#478CF7" fill-rule="evenodd" d="M122 30H98v13h24V30Zm6.25 18.448V36H147v100h-46.642c5.998-5.142 9.142-12.412 9.142-19.941v-13.427H92.024a26.272 26.272 0 0 0-16.899 6.144A26.393 26.393 0 0 0 72 106.524V36h18.75v12.448h37.5ZM87.625 82.68v6.225h6.25V82.68h-6.25Zm0-12.448v-6.224h6.25v6.224h-6.25Zm12.5 18.673h31.25V82.68h-31.25v6.225Zm31.25-18.673h-31.25v-6.224h31.25v6.224ZM104 109H92.864C81.91 109 73 117.898 73 128.835V136h11.343C95.289 136 104 127.156 104 116.165V109Zm-56 7.173V109h10.827c4.611 0 8.849 1.671 12.173 4.453a26.404 26.404 0 0 0-4.916 15.403V136C55.808 135.447 48 126.679 48 116.173Z" clip-rule="evenodd"/><path fill="#FAD149" fill-rule="evenodd" d="m183.507 24.128-11.635-11.635a1.682 1.682 0 0 0-2.379 2.379l2.231 2.23-2.651 2.651 7.174 7.173 2.65-2.65 2.231 2.231a1.678 1.678 0 0 0 2.379 0 1.682 1.682 0 0 0 0-2.379Zm-22.465-5.644a1.653 1.653 0 0 1 2.338 0l14.136 14.136a1.655 1.655 0 0 1-1.169 2.823c-.423 0-.847-.162-1.169-.485l-1.187-1.186L159.762 48 148 36.238l14.229-14.229-1.187-1.186a1.653 1.653 0 0 1 0-2.339Zm-26.633 40.83a4.854 4.854 0 0 1 .738-5.314L142 60.853a4.85 4.85 0 0 1-5.313.738l-5.938 5.937a1.605 1.605 0 0 1-1.139.472 1.61 1.61 0 0 1-1.138-2.749l5.937-5.938Zm4.168-13.83L146.061 38 158 49.938l-7.484 7.485A5.35 5.35 0 0 1 146.708 59a5.378 5.378 0 0 1-2.089-.42l-7.2-7.2a5.387 5.387 0 0 1-.419-2.088c0-1.439.56-2.79 1.577-3.808Z" clip-rule="evenodd"/><defs><filter id="a" width="115" height="115" x="0" y="0" color-interpolation-filters="sRGB" filterUnits="userSpaceOnUse"><feFlood flood-opacity="0" result="BackgroundImageFix"/><feColorMatrix in="SourceAlpha" result="hardAlpha" values="0 0 0 0 0 0 0 0 0 0 0 0 0 0 0 0 0 0 127 0"/><feOffset dy="4"/><feGaussianBlur stdDeviation="4"/><feColorMatrix values="0 0 0 0 0 0 0 0 0 0.0823529 0 0 0 0 0.25098 0 0 0 0.0840976 0"/><feBlend in2="BackgroundImageFix" result="effect1_dropShadow_0_142"/><feBlend in="SourceGraphic" in2="effect1_dropShadow_0_142" result="shape"/></filter></defs></svg>