<svg xmlns="http://www.w3.org/2000/svg" width="96" height="96" fill="none"><path fill="#478CF7" fill-rule="evenodd" d="M48 15.908c4.371 0 7.928-3.568 7.928-7.954C55.928 3.568 52.372 0 48 0s-7.928 3.568-7.928 7.954c0 4.386 3.556 7.954 7.928 7.954Zm0-13.095c2.82 0 5.115 2.306 5.115 5.14 0 2.836-2.294 5.142-5.115 5.142-2.82 0-5.116-2.306-5.116-5.141S45.18 2.813 48 2.813ZM92.773 20.16H52.618A6.534 6.534 0 0 0 48 18.272c-1.748 0-3.382.67-4.623 1.892a1.421 1.421 0 0 0-.11-.004H3.228A3.23 3.23 0 0 0 0 23.387v.028a6.813 6.813 0 0 0 6.806 6.806h.501a3.234 3.234 0 0 0-.027.417v.029a6.813 6.813 0 0 0 6.806 6.805h.5a3.215 3.215 0 0 0-.026.41v.029a6.813 6.813 0 0 0 6.806 6.806h16.532a1.406 1.406 0 0 0 0-2.813H21.366a3.998 3.998 0 0 1-3.993-3.993v-.028c0-.21.156-.384.359-.41h1.875c.033 0 .067-.002.1-.004h3.903a1.406 1.406 0 0 0 0-2.813h-5.823c-.051 0-.102.002-.153.004h-3.548a3.998 3.998 0 0 1-3.993-3.993v-.029c0-.228.185-.413.414-.413h25.48a1.406 1.406 0 0 0 0-2.813H12.434a1.47 1.47 0 0 0-.107-.004H6.806a3.998 3.998 0 0 1-3.994-3.993v-.028c0-.229.186-.414.414-.414h38.447a6.66 6.66 0 0 0-.272 2.249l.459 9.435H28.525a1.406 1.406 0 0 0 0 2.812h13.471l1.11 22.829h-3.478c-3.786 0-6.867 3.09-6.867 6.888 0 1.936.82 3.794 2.25 5.097a1.406 1.406 0 0 0 1.894-2.078 4.095 4.095 0 0 1-1.331-3.02c0-2.246 1.818-4.075 4.054-4.075h3.614l.396 8.151h-.37c-3.787 0-6.867 3.09-6.867 6.888a6.899 6.899 0 0 0 4.576 6.495 1.406 1.406 0 0 0 .94-2.65 4.081 4.081 0 0 1-2.703-3.845c0-2.247 1.818-4.075 4.053-4.075h.508l.911 18.763a3.318 3.318 0 0 0 6.627 0l.912-18.763h4.147c3.786 0 6.867-3.09 6.867-6.888 0-.411-.037-.823-.109-1.224a1.406 1.406 0 1 0-2.768.497c.042.237.064.482.064.727 0 2.247-1.819 4.075-4.054 4.075h-4.01l.395-8.15h7.073c3.786 0 6.867-3.09 6.867-6.889 0-3.798-3.08-6.887-6.867-6.887a1.406 1.406 0 1 0 0 2.812c2.236 0 4.054 1.828 4.054 4.075 0 2.248-1.818 4.076-4.054 4.076h-6.936l1.11-22.83h14.608a1.406 1.406 0 1 0 0-2.812H54.14l.458-9.434a6.66 6.66 0 0 0-.272-2.25h38.447c.228 0 .414.186.414.414v.029a3.998 3.998 0 0 1-3.993 3.993h-4.065c-.036 0-.072.001-.107.004H59.648a1.406 1.406 0 1 0 0 2.812h25.845c.229 0 .414.186.414.414v.028a3.998 3.998 0 0 1-3.993 3.994h-3.549a3.095 3.095 0 0 0-.152-.004h-4.232a1.406 1.406 0 1 0 0 2.813h.127c.033.002.067.003.101.003h4.059c.202.027.359.2.359.41v.029a3.998 3.998 0 0 1-3.993 3.993H57.828a1.406 1.406 0 1 0 0 2.812h16.806a6.813 6.813 0 0 0 6.805-6.805v-.029a3.23 3.23 0 0 0-.025-.41h.5a6.814 6.814 0 0 0 6.806-6.806v-.028c0-.142-.01-.281-.027-.418h.501A6.813 6.813 0 0 0 96 23.414v-.028a3.23 3.23 0 0 0-3.227-3.226ZM48.503 92.7a.507.507 0 0 1-.503.487.508.508 0 0 1-.504-.487l-.905-18.626h2.818L48.504 92.7Zm-2.049-21.439h3.092l.396-8.15h-3.884l.396 8.15Zm3.624-10.963h-4.157l-1.71-35.213a3.79 3.79 0 0 1 1.049-2.824A3.751 3.751 0 0 1 48 21.085c1.044 0 2.018.418 2.74 1.176a3.791 3.791 0 0 1 1.05 2.824l-1.712 35.213Zm7.456 14.882a1.406 1.406 0 0 0-.929 1.759 4.096 4.096 0 0 1-2.523 5.055 1.406 1.406 0 1 0 .94 2.65 6.899 6.899 0 0 0 4.27-8.535 1.406 1.406 0 0 0-1.758-.929ZM32.115 56.222c0 1.105.433 2.14 1.218 2.913a1.406 1.406 0 1 1-1.973 2.004 6.848 6.848 0 0 1-2.057-4.917c0-3.798 3.08-6.887 6.866-6.887a1.406 1.406 0 1 1 0 2.812c-2.235 0-4.054 1.828-4.054 4.075Z" clip-rule="evenodd"/></svg>