<svg xmlns="http://www.w3.org/2000/svg" width="96" height="96" fill="none"><path fill="#478CF7" fill-rule="evenodd" d="M70.818 4.709A16.158 16.158 0 0 0 59.408 0C55.128 0 51.024 1.695 48 4.71A16.155 16.155 0 0 0 36.592 0c-4.28 0-8.385 1.695-11.408 4.71-6.286 6.27-6.286 16.42 0 22.69L46.86 48.975c.63.627 1.651.627 2.28 0L70.82 27.4c6.286-6.27 6.285-16.421-.001-22.691ZM48 45.571 27.463 25.13a12.799 12.799 0 0 1-2.789-13.996c2-4.797 6.705-7.924 11.923-7.922a12.798 12.798 0 0 1 9.117 3.767l1.146 1.14c.63.627 1.65.627 2.28 0l1.149-1.143a12.923 12.923 0 0 1 9.124-3.766c3.423 0 6.706 1.355 9.124 3.766a12.8 12.8 0 0 1 0 18.15L48 45.571Zm9.677-28.231H52.84v-4.816a1.61 1.61 0 0 0-1.613-1.606h-6.452a1.61 1.61 0 0 0-1.613 1.606v4.816h-4.838a1.61 1.61 0 0 0-1.613 1.605v6.421a1.61 1.61 0 0 0 1.613 1.605h4.838v4.816a1.61 1.61 0 0 0 1.613 1.606h6.452a1.61 1.61 0 0 0 1.613-1.606v-4.816h4.838a1.61 1.61 0 0 0 1.613-1.605v-6.421a1.61 1.61 0 0 0-1.613-1.605Zm-1.612 6.42h-4.84a1.61 1.61 0 0 0-1.612 1.606v4.816h-3.226v-4.816a1.61 1.61 0 0 0-1.613-1.605h-4.839v-3.21h4.84a1.61 1.61 0 0 0 1.612-1.606v-4.816h3.226v4.816a1.61 1.61 0 0 0 1.613 1.605h4.839v3.21Zm36.66 2.184a6.46 6.46 0 0 0-5.08-7.128c-3.393-.643-6.707 1.442-7.58 4.768l-7.097 20.323c-.105.042-.208.09-.307.145l-14.258 8.316a14.462 14.462 0 0 0-7.177 12.457v15.122a1.61 1.61 0 0 0-1.613 1.605v12.843A1.61 1.61 0 0 0 51.226 96h22.58a1.61 1.61 0 0 0 1.613-1.605V81.552a1.61 1.61 0 0 0-1.613-1.605v-3.532a4.869 4.869 0 0 1 1.613-3.596l10.904-9.648a7.91 7.91 0 0 0 2.451-3.933l7-26.054c.15-.544.226-1.105.226-1.67a6.447 6.447 0 0 0-3.274-5.57Zm-9.58-1.413a3.408 3.408 0 0 1 3.839-2.568 3.214 3.214 0 0 1 2.564 3.13v.032a6.607 6.607 0 0 0-6.274 4.913l-4.5 13.821a6.798 6.798 0 0 0-2.161-.61l6.532-18.718ZM52.84 92.79h19.355v-9.632H52.839v9.632ZM92.66 32.35l-7.016 26.07a4.782 4.782 0 0 1-1.451 2.344l-10.92 9.648a8.1 8.1 0 0 0-2.693 6.004v3.532H54.45V64.825a11.31 11.31 0 0 1 5.581-9.696l14.242-8.3a3.24 3.24 0 0 1 2.455-.328c.829.22 1.536.76 1.965 1.5.418.742.534 1.616.322 2.44a3.213 3.213 0 0 1-1.516 1.943l-9.242 5.313a1.6 1.6 0 0 0-.531 2.158 1.617 1.617 0 0 0 2.144.62l9.242-5.314a6.342 6.342 0 0 0 3.016-3.901 6.406 6.406 0 0 0-.645-4.864l-.097-.145 4.984-15.298a3.408 3.408 0 0 1 3.839-2.569 3.214 3.214 0 0 1 2.564 3.13c.006.283-.032.564-.113.835ZM44.774 64.825v15.122c.891 0 1.613.719 1.613 1.605v12.843A1.61 1.61 0 0 1 44.774 96h-22.58a1.61 1.61 0 0 1-1.613-1.605V81.552a1.61 1.61 0 0 1 1.613-1.605v-3.532a4.825 4.825 0 0 0-1.63-3.596L9.677 63.171a7.886 7.886 0 0 1-2.451-3.949L.21 33.184a7.065 7.065 0 0 1-.21-1.67 6.447 6.447 0 0 1 3.274-5.57 6.46 6.46 0 0 1 5.08-7.128c3.44-.632 6.78 1.505 7.63 4.88l7.048 20.211c.049.025.101.045.153.065.053.02.105.04.154.064l14.258 8.331a14.463 14.463 0 0 1 7.177 12.458ZM9 21.963a3.214 3.214 0 0 0-2.548 3.13v.032a6.685 6.685 0 0 1 6.306 4.993l4.468 13.741a6.798 6.798 0 0 1 2.161-.61l-6.484-18.605A3.484 3.484 0 0 0 9 21.963ZM22.71 70.41l-10.904-9.648a4.756 4.756 0 0 1-1.451-2.36L3.323 32.35a3.39 3.39 0 0 1-.097-.834 3.214 3.214 0 0 1 2.548-3.13 3.457 3.457 0 0 1 3.887 2.648l4.952 15.218-.097.145a6.406 6.406 0 0 0-.645 4.864 6.342 6.342 0 0 0 3.016 3.9l9.242 5.314a1.617 1.617 0 0 0 2.144-.619 1.6 1.6 0 0 0-.531-2.158L18.5 52.384a3.213 3.213 0 0 1-1.516-1.943 3.293 3.293 0 0 1 .322-2.44 3.224 3.224 0 0 1 1.955-1.502 3.239 3.239 0 0 1 2.449.314l14.258 8.316a11.31 11.31 0 0 1 5.58 9.696v15.122H25.42v-3.532a8.058 8.058 0 0 0-2.71-6.004Zm1.096 22.378h19.355v-9.632H23.806v9.632Z" clip-rule="evenodd"/></svg>