<svg xmlns="http://www.w3.org/2000/svg" width="96" height="91" fill="none"><path fill="#478CF7" fill-rule="evenodd" d="M95.884 50.992c-.71-4.894-4.57-8.738-9.485-9.444V38.65c0-7.99-6.101-14.496-13.6-14.496-7.283 0-13.38 6.308-13.6 14.063h.093l-.093.016v31.394c0 10.036-7.536 18.186-16.8 18.186-9.264 0-16.8-8.161-16.8-18.186v-2.72c2.32 0 4.8-1.674 4.8-6.372V56.53C40.67 53.916 48 45.137 48 35.183v-3.321h-3.2l-.067-20.733c-.023-3.838-2.79-7.115-6.582-7.798C37.332.835 34.636-.528 32.13.287a4.75 4.75 0 0 0-3.058 5.994c.819 2.496 3.514 3.859 6.02 3.044a4.766 4.766 0 0 0 2.949-2.746 4.782 4.782 0 0 1 3.486 4.56l.072 20.723h-3.2v3.368c-.127 5.54-3.858 10.356-9.21 11.885a14.608 14.608 0 0 1-8.799 0c-5.344-1.534-9.067-6.349-9.19-11.885v-3.368H6.4v-20.71a4.783 4.783 0 0 1 3.552-4.594c.974 2.468 3.773 3.683 6.251 2.714a4.795 4.795 0 0 0 2.726-6.225C17.955.58 15.156-.636 12.677.334a4.81 4.81 0 0 0-2.824 2.989c-3.835.652-6.642 3.956-6.653 7.83v20.709H0v3.314C0 45.14 7.336 53.921 17.6 56.53v4.006c0 4.698 2.48 6.373 4.8 6.373v2.719C22.4 81.416 31.37 91 42.4 91c11.028 0 19.999-9.595 19.999-21.372V38.31c.16-6.046 4.829-10.965 10.4-10.965 5.734 0 10.4 5.072 10.4 11.31v2.892c-6.122.88-10.369 6.534-9.485 12.63.883 6.095 6.563 10.323 12.685 9.443 6.122-.88 10.368-6.534 9.485-12.63ZM33.599 6.373c-.883 0-1.6-.714-1.6-1.594 0-.88.717-1.593 1.6-1.593.884 0 1.6.714 1.6 1.593 0 .88-.716 1.593-1.6 1.593ZM16 4.78c0-.88-.716-1.593-1.6-1.593-.883 0-1.6.714-1.6 1.593 0 .88.717 1.593 1.6 1.593.884 0 1.6-.713 1.6-1.593ZM3.2 35.175v-.127H8v.182c.12 6.924 4.747 12.966 11.422 14.915a17.879 17.879 0 0 0 10.748 0c6.677-1.946 11.308-7.99 11.43-14.915v-.182h3.2v.127c0 8.863-6.86 16.66-16.32 18.547a22.92 22.92 0 0 1-6.75.33 20.974 20.974 0 0 1-2.21-.334C10.062 51.835 3.2 44.038 3.2 35.175Zm17.6 25.361c0 .956.16 3.187 1.6 3.187h3.199c1.44 0 1.6-2.23 1.6-3.187v-3.38a4.332 4.332 0 0 1-.206.02c-.06.004-.12.008-.178.015a15.659 15.659 0 0 1-.494.045 25.74 25.74 0 0 1-2.282.113h-.08a26.568 26.568 0 0 1-2.29-.113l-.12-.01c-.12-.011-.24-.022-.36-.035l-.155-.013a5.072 5.072 0 0 1-.233-.022v3.38Zm64 0c-4.419 0-8-3.566-8-7.965s3.581-7.965 8-7.965c4.418 0 8 3.566 8 7.965-.006 4.397-3.584 7.96-8 7.965Zm0-12.744c-2.651 0-4.8 2.14-4.8 4.78 0 2.639 2.149 4.778 4.8 4.778 2.65 0 4.8-2.14 4.8-4.779 0-2.64-2.15-4.779-4.8-4.779Zm0 6.372c-.884 0-1.6-.713-1.6-1.593s.716-1.593 1.6-1.593c.883 0 1.6.714 1.6 1.593 0 .88-.717 1.593-1.6 1.593Z" clip-rule="evenodd"/></svg>