<svg xmlns="http://www.w3.org/2000/svg" width="96" height="96" fill="none"><path fill="#478CF7" fill-rule="evenodd" d="M92.8 52.806h1.6a1.6 1.6 0 0 1 1.6 1.6v22.045a14.335 14.335 0 0 1-7.664 12.718L74.288 95.84a1.56 1.56 0 0 1-1.376 0l-3.552-1.68A4.826 4.826 0 0 1 65.6 96H4.8A4.814 4.814 0 0 1 0 91.2V14.413a4.814 4.814 0 0 1 4.8-4.8h13.088A4.816 4.816 0 0 1 22.4 6.414h3.744a9.6 9.6 0 0 1 18.112 0H48a4.816 4.816 0 0 1 4.512 3.2H65.6a4.814 4.814 0 0 1 4.8 4.8v32.394l2.24-1.68a1.584 1.584 0 0 1 1.92 0l3.84 2.88a24.182 24.182 0 0 0 14.4 4.8ZM65.6 12.812H52.8v3.2h9.6a1.6 1.6 0 0 1 1.6 1.6V50.79a24.392 24.392 0 0 0 3.2-1.68V14.412a1.6 1.6 0 0 0-1.6-1.6Zm-44.8-1.6a1.6 1.6 0 0 1 1.6-1.6h4.96a1.58 1.58 0 0 0 1.568-1.279 6.4 6.4 0 0 1 12.544 0 1.58 1.58 0 0 0 1.568 1.28H48a1.6 1.6 0 0 1 1.6 1.6v6.399H20.8v-6.4Zm32 8a1.6 1.6 0 0 1-1.6 1.6h-32a1.6 1.6 0 0 1-1.6-1.6h-8v67.19h45.632a14.44 14.44 0 0 1-3.056-4.8H24v-3.2h27.328c-.083-.647-.126-1.299-.128-1.951v-4.447H24v-3.2h27.2v-6.399H24v-3.2h27.2v-4.799a1.6 1.6 0 0 1 1.6-1.6h1.6c2.164-.009 4.317-.31 6.4-.895v-32.7h-8ZM65.6 92.8H4.8a1.6 1.6 0 0 1-1.6-1.6V14.412a1.6 1.6 0 0 1 1.6-1.6h12.8v3.2H8a1.6 1.6 0 0 0-1.6 1.6v70.39A1.6 1.6 0 0 0 8 89.6h51.776l6.432 3.055a1.612 1.612 0 0 1-.608.144Zm21.296-6.496a11.123 11.123 0 0 0 5.904-9.854V56.006a27.362 27.362 0 0 1-16.32-5.44l-2.88-2.159-2.88 2.16a27.362 27.362 0 0 1-16.32 5.439V76.45a11.158 11.158 0 0 0 5.936 9.87L73.6 92.624l13.296-6.319ZM35.2 4.814a4.8 4.8 0 1 0 0 9.599 4.8 4.8 0 0 0 0-9.6Zm0 6.399a1.6 1.6 0 1 1 0-3.2 1.6 1.6 0 0 1 0 3.2ZM20.8 49.607h-6.4v3.2h6.4v-3.2Zm3.2 0h24v3.2H24v-3.2Zm-3.2 9.599h-6.4v3.199h6.4v-3.2Zm-6.4 9.598h6.4v3.2h-6.4v-3.2Zm6.4 9.599h-6.4v3.2h6.4v-3.2Zm24-47.993H40v-4.8a1.6 1.6 0 0 0-1.6-1.6H32a1.6 1.6 0 0 0-1.6 1.6v4.8h-4.8a1.6 1.6 0 0 0-1.6 1.6v6.399a1.6 1.6 0 0 0 1.6 1.6h4.8v4.799a1.6 1.6 0 0 0 1.6 1.6h6.4a1.6 1.6 0 0 0 1.6-1.6v-4.8h4.8a1.6 1.6 0 0 0 1.6-1.6V32.01a1.6 1.6 0 0 0-1.6-1.6Zm-1.6 6.399h-4.8a1.6 1.6 0 0 0-1.6 1.6v4.799h-3.2v-4.8a1.6 1.6 0 0 0-1.6-1.6h-4.8V33.61H32a1.6 1.6 0 0 0 1.6-1.6V27.21h3.2v4.8a1.6 1.6 0 0 0 1.6 1.6h4.8v3.199Zm31.36 16.317a30.47 30.47 0 0 0 13.68 5.727c.78.124 1.356.795 1.36 1.584v16.014a8.008 8.008 0 0 1-4.128 6.99l-11.184 5.312a1.56 1.56 0 0 1-1.376 0L61.824 83.49l-.096-.048A7.989 7.989 0 0 1 57.6 76.45V60.437c.004-.79.58-1.46 1.36-1.584a30.47 30.47 0 0 0 13.68-5.727 1.584 1.584 0 0 1 1.92 0ZM84 80.594a4.734 4.734 0 0 0 2.4-4.143V61.78a33.776 33.776 0 0 1-12.8-5.407 33.776 33.776 0 0 1-12.8 5.407v14.67c0 1.728.929 3.323 2.432 4.175L73.6 85.538 84 80.594Zm-14.731-1.06-4.8-4.8 2.262-2.262 3.669 3.669 11.669-11.668 2.262 2.263-12.8 12.798a1.6 1.6 0 0 1-2.262 0Z" clip-rule="evenodd"/></svg>